<svg xmlns="http://www.w3.org/2000/svg" version="1.1" xmlns:xlink="http://www.w3.org/1999/xlink" xmlns:svgjs="http://svgjs.dev/svgjs" width="1500" height="1500" viewBox="0 0 1500 1500"><rect width="1500" height="1500" fill="#ffffff"></rect><g transform="matrix(0.6666666666666666,0,0,0.6666666666666666,250,250)"><svg viewBox="0 0 280 280" data-background-color="#ffffff" preserveAspectRatio="xMidYMid meet" height="1500" width="1500" xmlns="http://www.w3.org/2000/svg" xmlns:xlink="http://www.w3.org/1999/xlink"><g id="tight-bounds" transform="matrix(1,0,0,1,0,0)"><svg viewBox="0 0 280 280" height="280" width="280"><g><svg viewBox="0 0 280 280" height="280" width="280"><g><svg viewBox="0 0 280 280" height="280" width="280"><g id="textblocktransform"><svg viewBox="0 0 280 280" height="280" width="280" id="textblock"><g><svg viewBox="0 0 280 280" height="280" width="280"><g transform="matrix(1,0,0,1,74.00336708925556,78.12815664617709)"><svg viewBox="0 0 131.99326582148888 123.74368670764582" height="123.74368670764582" width="131.99326582148888"><g id="icon-0"><svg xmlns="http://www.w3.org/2000/svg" viewBox="4.440892098500626e-16 0 32 30" enable-background="new 0 0 32 32" x="0" y="0" height="123.74368670764582" width="131.99326582148888" class="icon-xg-0" data-fill-palette-color="accent" id="xg-0"></svg></g></svg></g><g id="text-0"><path d="M30.597 96.559l-9.938-3.345-3.738 11.106 9.938 3.345-0.89 2.642-21.944-7.386 0.889-2.642 9.68 3.258 3.738-11.106-9.68-3.258 0.887-2.633 21.944 7.386z" fill="#000000" data-fill-palette-color="primary"></path><path d="M38.133 83.001v0c-0.579 1.019-1.281 1.832-2.106 2.44-0.829 0.614-1.752 1.019-2.77 1.215-1.018 0.197-2.091 0.184-3.219-0.039-1.137-0.22-2.301-0.668-3.489-1.342v0c-1.177-0.668-2.154-1.436-2.932-2.304-0.781-0.862-1.348-1.78-1.701-2.755-0.347-0.971-0.472-1.972-0.375-3.001 0.099-1.02 0.438-2.04 1.017-3.059v0c0.569-1.001 1.259-1.794 2.071-2.379 0.815-0.575 1.704-0.961 2.667-1.157 0.96-0.191 1.967-0.184 3.021 0.019 1.054 0.204 2.111 0.606 3.171 1.209v0l1.089 0.618-6.081 10.708 0.694 0.395c0.638 0.363 1.288 0.596 1.949 0.7 0.664 0.114 1.304 0.098 1.921-0.048 0.617-0.145 1.196-0.428 1.737-0.849 0.544-0.412 1.013-0.966 1.409-1.663v0c0.535-0.943 0.778-1.889 0.729-2.839-0.046-0.956-0.372-1.861-0.978-2.716v0l2.119-0.969c0.746 1.059 1.143 2.276 1.191 3.65 0.042 1.372-0.336 2.76-1.134 4.166zM24.491 75.254v0c-0.359 0.632-0.575 1.273-0.649 1.92-0.07 0.642-0.011 1.268 0.176 1.877 0.191 0.604 0.499 1.166 0.925 1.687 0.431 0.523 0.971 0.97 1.621 1.339v0l0.202 0.115 4.669-8.223-0.316-0.179c-1.324-0.752-2.591-0.995-3.802-0.731-1.206 0.268-2.148 0.999-2.826 2.195z" fill="#000000" data-fill-palette-color="primary"></path><path d="M53.297 61.514l-0.93 1.158c-0.624 0.777-1.278 1.167-1.963 1.171-0.685 0.003-1.373-0.199-2.064-0.608v0l-0.101 0.126c0.594 0.96 0.828 1.943 0.703 2.949-0.13 1.001-0.568 1.966-1.314 2.896v0c-1.138 1.418-2.384 2.227-3.737 2.428-1.352 0.21-2.65-0.184-3.895-1.184v0c-1.26-1.012-1.856-2.25-1.786-3.713 0.07-1.464 0.887-3.17 2.451-5.119v0l2.118-2.639-1.316-1.056c-0.951-0.763-1.884-1.085-2.8-0.966-0.912 0.114-1.798 0.707-2.658 1.779v0c-0.649 0.809-1.01 1.629-1.082 2.461-0.076 0.837 0.042 1.679 0.356 2.526v0l-2.165 0.309c-0.434-0.944-0.587-2.017-0.46-3.219 0.131-1.207 0.68-2.412 1.645-3.615v0c1.303-1.623 2.711-2.565 4.225-2.827 1.514-0.261 2.977 0.175 4.39 1.309v0l7.35 5.9 1.221-1.52zM46.136 67.465v0c0.417-0.52 0.739-1.044 0.964-1.572 0.225-0.528 0.349-1.037 0.372-1.528 0.028-0.487-0.035-0.935-0.191-1.344-0.155-0.409-0.406-0.753-0.752-1.032v0l-2.198-1.764-2.201 2.741c-0.957 1.192-1.479 2.198-1.567 3.017-0.092 0.824 0.188 1.498 0.84 2.021v0l0.543 0.437c0.656 0.527 1.358 0.697 2.104 0.509 0.742-0.182 1.437-0.677 2.086-1.485z" fill="#000000" data-fill-palette-color="primary"></path><path d="M60.476 54.509l-1.675 1.653c-0.662 0.653-1.342 0.96-2.042 0.922-0.705-0.033-1.338-0.335-1.901-0.905v0l-15.305-15.512 1.892-1.866 15.609 15.821 1.791-1.767z" fill="#000000" data-fill-palette-color="primary"></path><path d="M69.816 46.997l-2.583 2.075c-0.725 0.582-1.436 0.821-2.134 0.716-0.698-0.105-1.31-0.485-1.837-1.142v0l-7.504-9.34-2.197 1.765-1.455-1.811 1.244-1c0.446-0.359 0.679-0.692 0.699-1.002 0.02-0.319-0.149-0.701-0.507-1.147v0l-1.993-2.481 1.858-1.493 2.968 3.693 2.921-2.347 1.456 1.811-2.922 2.348 7.814 9.726 2.717-2.183z" fill="#000000" data-fill-palette-color="primary"></path><path d="M74.447 43.949l-12.89-20.892 2.261-1.395 5.363 8.692 0.112-0.069c-0.154-1.045-0.056-2.015 0.293-2.911 0.347-0.887 1.065-1.666 2.154-2.338v0c1.507-0.93 2.998-1.181 4.473-0.753 1.475 0.428 2.758 1.527 3.851 3.298v0l5.766 9.345-2.261 1.395-5.522-8.95c-1.613-2.614-3.519-3.242-5.72-1.884v0c-0.453 0.279-0.858 0.604-1.215 0.975-0.353 0.376-0.63 0.781-0.83 1.213-0.197 0.438-0.289 0.891-0.278 1.359 0.021 0.47 0.176 0.94 0.466 1.409v0l6.238 10.111z" fill="#000000" data-fill-palette-color="primary"></path><path d="M113.287 26.997l-1.417 0.444c-0.951 0.298-1.712 0.257-2.282-0.122-0.57-0.379-1.029-0.931-1.376-1.655v0l-0.154 0.049c-0.042 1.128-0.395 2.075-1.058 2.84-0.666 0.759-1.567 1.316-2.706 1.672v0c-1.735 0.543-3.221 0.521-4.456-0.066-1.24-0.579-2.098-1.63-2.574-3.153v0c-0.483-1.543-0.287-2.902 0.586-4.079 0.874-1.177 2.503-2.138 4.887-2.885v0l3.23-1.011-0.504-1.61c-0.364-1.163-0.96-1.951-1.788-2.362-0.821-0.413-1.887-0.415-3.198-0.004v0c-0.99 0.31-1.746 0.79-2.269 1.441-0.53 0.653-0.9 1.418-1.113 2.296v0l-1.97-0.95c0.166-1.026 0.636-2.002 1.412-2.93 0.782-0.929 1.909-1.624 3.38-2.085v0c1.986-0.622 3.68-0.619 5.084 0.007 1.403 0.626 2.375 1.804 2.916 3.533v0l2.816 8.995 1.86-0.582zM104.026 27.949v0c0.636-0.199 1.195-0.455 1.676-0.768 0.481-0.313 0.867-0.667 1.16-1.062 0.295-0.389 0.492-0.796 0.591-1.223 0.099-0.426 0.083-0.852-0.05-1.275v0l-0.842-2.69-3.355 1.05c-1.459 0.457-2.453 1.001-2.982 1.632-0.536 0.633-0.679 1.349-0.429 2.146v0l0.208 0.665c0.251 0.803 0.739 1.335 1.463 1.596 0.717 0.262 1.571 0.239 2.56-0.071z" fill="#000000" data-fill-palette-color="primary"></path><path d="M128.599 24.67l-0.417-2.757-0.13 0.019c-0.715 2.254-2.208 3.552-4.479 3.895v0c-1.052 0.159-2.036 0.096-2.95-0.188-0.915-0.284-1.73-0.764-2.445-1.439-0.722-0.674-1.321-1.534-1.799-2.578-0.486-1.05-0.83-2.252-1.035-3.604v0c-0.205-1.358-0.23-2.608-0.076-3.748 0.148-1.139 0.467-2.138 0.958-2.995 0.484-0.856 1.12-1.559 1.909-2.107 0.79-0.542 1.711-0.892 2.763-1.051v0c1.179-0.178 2.23-0.075 3.153 0.31 0.917 0.386 1.675 1.082 2.277 2.088v0l0.13-0.019-1.525-10.099 2.627-0.397 3.666 24.273zM123.936 23.361v0c0.593-0.09 1.144-0.251 1.654-0.484 0.516-0.235 0.949-0.528 1.297-0.881 0.348-0.359 0.602-0.769 0.765-1.229 0.169-0.461 0.212-0.965 0.129-1.511v0l-0.95-6.293c-0.069-0.459-0.251-0.875-0.546-1.246-0.288-0.372-0.65-0.672-1.086-0.899-0.435-0.22-0.935-0.373-1.5-0.458-0.557-0.079-1.132-0.074-1.724 0.016v0c-1.485 0.224-2.584 0.864-3.296 1.918-0.712 1.061-0.954 2.344-0.727 3.849v0l0.436 2.887c0.228 1.512 0.839 2.666 1.831 3.462 0.993 0.804 2.232 1.093 3.717 0.869z" fill="#000000" data-fill-palette-color="primary"></path><path d="M144.349 24.365l-3.08-0.058-5.689-17.233 2.657 0.05 2.82 8.55 1.749 5.873 0.171 0.003 1.969-5.803 3.209-8.437 2.556 0.048z" fill="#000000" data-fill-palette-color="primary"></path><path d="M158.76 4.196v0c-0.569-0.066-0.964-0.252-1.186-0.555-0.215-0.303-0.297-0.676-0.245-1.117v0l0.049-0.422c0.052-0.441 0.217-0.785 0.497-1.03 0.286-0.245 0.714-0.334 1.282-0.267v0c0.575 0.067 0.974 0.253 1.196 0.557 0.215 0.303 0.297 0.676 0.246 1.117v0l-0.049 0.421c-0.052 0.441-0.217 0.785-0.497 1.031-0.286 0.245-0.717 0.333-1.293 0.265zM154.991 25.033l1.989-17.007 2.639 0.309-1.989 17.007z" fill="#000000" data-fill-palette-color="primary"></path><path d="M170.226 28.582v0c-1.164-0.286-2.158-0.745-2.98-1.377-0.823-0.632-1.459-1.402-1.908-2.31-0.45-0.908-0.71-1.939-0.78-3.094-0.068-1.161 0.06-2.405 0.387-3.733v0c0.328-1.334 0.79-2.497 1.387-3.487 0.597-0.991 1.305-1.784 2.124-2.38 0.819-0.596 1.74-0.987 2.764-1.173 1.022-0.179 2.115-0.125 3.279 0.16v0c1.655 0.406 2.891 1.092 3.708 2.056 0.824 0.965 1.339 2.087 1.545 3.365v0l-2.428 0.568c-0.09-0.931-0.42-1.719-0.99-2.365-0.571-0.64-1.37-1.086-2.397-1.338v0c-0.778-0.191-1.486-0.233-2.122-0.126-0.643 0.106-1.211 0.33-1.705 0.674-0.494 0.343-0.914 0.798-1.261 1.365-0.341 0.568-0.6 1.215-0.779 1.941v0l-0.696 2.835c-0.36 1.465-0.261 2.758 0.295 3.88 0.555 1.128 1.595 1.879 3.119 2.253v0c2.08 0.511 3.818-0.085 5.214-1.787v0l1.565 1.716c-0.832 1.072-1.868 1.83-3.107 2.274-1.233 0.446-2.644 0.474-4.234 0.083z" fill="#000000" data-fill-palette-color="primary"></path><path d="M186.508 34.225v0c-1.084-0.446-1.979-1.04-2.686-1.782-0.713-0.745-1.231-1.61-1.554-2.595-0.323-0.985-0.445-2.051-0.366-3.199 0.075-1.156 0.373-2.366 0.893-3.63v0c0.515-1.252 1.154-2.318 1.917-3.199 0.757-0.883 1.596-1.561 2.519-2.033 0.92-0.466 1.897-0.716 2.931-0.749 1.025-0.03 2.079 0.178 3.162 0.624v0c1.065 0.438 1.938 1.023 2.62 1.755 0.673 0.736 1.168 1.569 1.484 2.501 0.31 0.929 0.43 1.928 0.361 2.999-0.069 1.071-0.336 2.17-0.8 3.298v0l-0.477 1.158-11.388-4.686-0.304 0.738c-0.279 0.679-0.429 1.353-0.449 2.022-0.029 0.673 0.067 1.306 0.289 1.899 0.222 0.594 0.575 1.133 1.06 1.617 0.477 0.487 1.086 0.884 1.827 1.188v0c1.003 0.413 1.972 0.535 2.908 0.367 0.942-0.166 1.799-0.603 2.572-1.313v0l1.228 1.981c-0.957 0.874-2.114 1.421-3.472 1.641-1.355 0.214-2.78 0.014-4.275-0.602zM192.478 19.717v0c-0.673-0.277-1.335-0.411-1.986-0.402-0.645 0.011-1.259 0.148-1.841 0.411-0.575 0.266-1.094 0.642-1.557 1.129-0.465 0.493-0.84 1.085-1.124 1.777v0l-0.089 0.215 8.745 3.598 0.138-0.336c0.579-1.408 0.661-2.696 0.246-3.864-0.417-1.162-1.262-2.005-2.532-2.528z" fill="#000000" data-fill-palette-color="primary"></path><path d="M216.256 54.113v0c-1.043 1.431-2.37 2.073-3.978 1.925-1.604-0.144-3.521-1.029-5.753-2.656v0c-2.166-1.579-3.508-3.008-4.026-4.286-0.514-1.284-0.375-2.47 0.419-3.558v0c0.548-0.751 1.17-1.193 1.867-1.327 0.703-0.129 1.463-0.046 2.281 0.25v0l0.214-0.293c-0.532-0.996-0.473-1.941 0.178-2.834v0c0.508-0.697 1.121-1.063 1.838-1.097 0.716-0.045 1.486 0.1 2.309 0.433v0l0.083-0.114c-0.536-0.991-0.767-2.018-0.692-3.08 0.079-1.068 0.469-2.084 1.171-3.047v0c0.508-0.697 1.103-1.25 1.786-1.661 0.679-0.405 1.4-0.651 2.163-0.736 0.767-0.091 1.549-0.021 2.346 0.21 0.807 0.23 1.603 0.631 2.387 1.203v0c0.985 0.718 1.73 1.537 2.235 2.455v0l0.179-0.245c0.389-0.533 0.835-0.883 1.34-1.049 0.504-0.166 1.042-0.04 1.613 0.376v0l2.065 1.506-1.363 1.87-2.628-1.917-0.649 0.89c0.187 0.795 0.201 1.593 0.043 2.394-0.159 0.801-0.512 1.577-1.06 2.328v0c-0.508 0.697-1.101 1.247-1.78 1.652-0.679 0.405-1.402 0.653-2.168 0.745-0.763 0.086-1.548 0.009-2.357-0.231-0.813-0.234-1.611-0.637-2.395-1.208v0c-0.452-0.329-0.869-0.7-1.252-1.113v0c-0.554-0.212-1.106-0.335-1.655-0.369-0.55-0.034-0.982 0.163-1.296 0.593v0c-0.302 0.414-0.308 0.834-0.019 1.261 0.294 0.431 0.751 0.873 1.372 1.325v0l2.955 2.155c1.714 1.25 2.722 2.485 3.024 3.705 0.302 1.22 0.037 2.402-0.797 3.545zM214.121 52.806v0c0.405-0.555 0.519-1.151 0.342-1.789-0.181-0.632-0.807-1.339-1.88-2.12v0l-4.612-3.363c-1.14-0.231-2.022 0.081-2.644 0.935v0c-0.444 0.609-0.597 1.294-0.46 2.053 0.144 0.763 0.76 1.542 1.849 2.335v0l1.983 1.447c1.197 0.873 2.265 1.364 3.203 1.472 0.932 0.105 1.672-0.219 2.219-0.97zM215.174 41.297v0c0.909 0.663 1.791 0.973 2.647 0.93 0.855-0.052 1.613-0.532 2.276-1.441v0l0.548-0.751c0.667-0.914 0.892-1.783 0.676-2.608-0.217-0.834-0.78-1.582-1.689-2.244v0c-0.914-0.667-1.799-0.974-2.654-0.922-0.856 0.043-1.618 0.521-2.284 1.435v0l-0.547 0.751c-0.663 0.909-0.885 1.78-0.668 2.614 0.216 0.824 0.781 1.57 1.695 2.236z" fill="#000000" data-fill-palette-color="primary"></path><path d="M222.214 57.245l-1.933-1.823 11.751-12.455 1.933 1.824-2.163 2.292 0.117 0.111c0.785-0.38 1.685-0.53 2.703-0.45 1.027 0.08 2.047 0.598 3.061 1.555v0l0.742 0.7-1.824 1.932-1.131-1.067c-1.043-0.984-2.046-1.556-3.009-1.714-0.958-0.163-1.718 0.055-2.282 0.653v0z" fill="#000000" data-fill-palette-color="primary"></path><path d="M232.985 69.98v0c-0.722-0.897-1.218-1.847-1.488-2.848-0.274-1.007-0.315-2.02-0.124-3.038 0.192-1.019 0.594-2.017 1.208-2.995 0.619-0.982 1.461-1.902 2.526-2.758v0c1.055-0.849 2.131-1.472 3.228-1.871 1.097-0.399 2.163-0.582 3.199-0.552 1.031 0.035 2.011 0.292 2.942 0.771 0.921 0.478 1.742 1.166 2.464 2.063v0c0.718 0.892 1.209 1.836 1.475 2.833 0.256 0.995 0.295 2.005 0.117 3.03-0.183 1.029-0.587 2.037-1.211 3.023-0.624 0.986-1.464 1.904-2.518 2.753v0c-1.065 0.857-2.144 1.483-3.235 1.877-1.086 0.39-2.152 0.565-3.197 0.523-1.045-0.041-2.023-0.296-2.935-0.763-0.916-0.473-1.733-1.155-2.451-2.048zM234.819 68.505v0c0.899 1.118 1.978 1.754 3.235 1.909 1.253 0.15 2.588-0.345 4.004-1.484v0l1.913-1.539c1.411-1.136 2.178-2.332 2.3-3.588 0.123-1.266-0.266-2.457-1.165-3.575v0c-0.903-1.123-1.987-1.76-3.249-1.911-1.253-0.15-2.585 0.343-3.997 1.478v0l-1.913 1.539c-1.417 1.14-2.186 2.338-2.307 3.594-0.117 1.261 0.276 2.454 1.179 3.577z" fill="#000000" data-fill-palette-color="primary"></path><path d="M246.004 89.306l2.415-1.394-0.066-0.114c-0.432 0.047-0.881 0.058-1.347 0.031-0.457-0.024-0.911-0.123-1.362-0.298-0.445-0.178-0.877-0.454-1.295-0.827-0.418-0.373-0.803-0.866-1.157-1.478v0c-0.886-1.534-1.095-3.034-0.628-4.502 0.467-1.467 1.601-2.721 3.403-3.762v0l9.51-5.492 1.323 2.292-9.106 5.259c-2.665 1.539-3.344 3.44-2.038 5.703v0c0.266 0.461 0.582 0.873 0.948 1.238 0.36 0.368 0.753 0.65 1.178 0.848 0.419 0.201 0.866 0.301 1.34 0.299 0.47-0.007 0.953-0.154 1.449-0.44v0l10.261-5.926 1.329 2.3-14.828 8.564z" fill="#000000" data-fill-palette-color="primary"></path><path d="M243.361 99.752l22.286-8.239 0.921 2.492-2.615 0.967 0.046 0.123c1.171 0.041 2.147 0.369 2.928 0.986 0.783 0.622 1.381 1.493 1.794 2.611v0c0.369 0.998 0.507 1.974 0.414 2.927-0.099 0.956-0.407 1.852-0.923 2.689-0.516 0.837-1.236 1.599-2.16 2.285-0.924 0.686-2.03 1.267-3.319 1.744v0c-1.282 0.474-2.501 0.752-3.655 0.834-1.148 0.08-2.19-0.03-3.127-0.33-0.937-0.3-1.75-0.782-2.441-1.446-0.691-0.664-1.22-1.495-1.589-2.493v0c-0.806-2.179-0.39-4.114 1.247-5.803v0l-0.045-0.123-8.841 3.268zM253.905 103.393v0c0.521 1.409 1.373 2.354 2.556 2.836 1.177 0.484 2.482 0.461 3.917-0.069v0l2.738-1.013c1.428-0.528 2.434-1.359 3.02-2.495 0.579-1.133 0.608-2.404 0.087-3.813v0c-0.208-0.562-0.481-1.068-0.819-1.517-0.347-0.453-0.722-0.817-1.126-1.092-0.409-0.272-0.848-0.448-1.314-0.526-0.465-0.072-0.915-0.028-1.351 0.133v0l-5.97 2.207c-0.518 0.191-0.939 0.469-1.264 0.834-0.323 0.371-0.557 0.795-0.704 1.272-0.14 0.475-0.188 0.996-0.144 1.561 0.042 0.559 0.166 1.12 0.374 1.682z" fill="#000000" data-fill-palette-color="primary"></path><path d="M3.334 143.596c0-5.178 4.198-9.377 9.376-9.377 5.178 0 9.377 4.198 9.377 9.377 0 5.178-4.198 9.377-9.377 9.376-5.178 0-9.377-4.198-9.376-9.376z" fill="#000000" data-fill-palette-color="primary"></path><path d="M257.913 143.596c0-5.178 4.198-9.377 9.377-9.377 5.178 0 9.377 4.198 9.376 9.377 0 5.178-4.198 9.377-9.376 9.376-5.178 0-9.377-4.198-9.377-9.376z" fill="#000000" data-fill-palette-color="primary"></path></g><g id="text-1"><path d="M14.373 196.094l9.938-3.345-3.738-11.107-9.938 3.345-0.89-2.642 21.945-7.386 0.889 2.642-9.68 3.258 3.739 11.107 9.679-3.258 0.886 2.633-21.944 7.386z" fill="#000000" data-fill-palette-color="secondary"></path><path d="M22.562 213.033v0c-0.579-1.019-0.918-2.039-1.017-3.059-0.103-1.026 0.023-2.026 0.375-3.001 0.353-0.975 0.913-1.89 1.683-2.744 0.772-0.864 1.752-1.634 2.941-2.309v0c1.177-0.668 2.337-1.114 3.481-1.338 1.14-0.229 2.219-0.245 3.236-0.049 1.012 0.2 1.935 0.605 2.77 1.215 0.825 0.608 1.527 1.421 2.106 2.44v0c0.569 1.001 0.896 2.001 0.982 2.998 0.077 0.994-0.047 1.955-0.373 2.883-0.328 0.922-0.85 1.784-1.564 2.585-0.715 0.801-1.602 1.502-2.662 2.104v0l-1.089 0.619-6.081-10.709-0.694 0.394c-0.638 0.363-1.172 0.801-1.6 1.316-0.437 0.512-0.752 1.07-0.943 1.674-0.191 0.604-0.245 1.247-0.161 1.926 0.075 0.678 0.31 1.365 0.706 2.062v0c0.535 0.943 1.224 1.636 2.065 2.081 0.844 0.45 1.789 0.634 2.834 0.551v0l-0.253 2.316c-1.292 0.098-2.54-0.184-3.746-0.847-1.199-0.666-2.198-1.702-2.996-3.108zM36.204 205.286v0c-0.359-0.632-0.798-1.146-1.316-1.541-0.515-0.389-1.083-0.659-1.703-0.81-0.617-0.145-1.258-0.169-1.922-0.071-0.67 0.102-1.33 0.337-1.981 0.707v0l-0.202 0.115 4.67 8.222 0.316-0.18c1.324-0.752 2.182-1.715 2.575-2.891 0.387-1.173 0.242-2.356-0.437-3.551z" fill="#000000" data-fill-palette-color="secondary"></path><path d="M39.947 236.393l-0.93-1.158c-0.624-0.777-0.863-1.501-0.718-2.17 0.145-0.669 0.492-1.297 1.04-1.883v0l-0.101-0.126c-1.066 0.372-2.076 0.388-3.031 0.049-0.949-0.343-1.797-0.98-2.543-1.91v0c-1.138-1.418-1.659-2.809-1.563-4.173 0.087-1.365 0.753-2.548 1.998-3.547v0c1.26-1.012 2.598-1.325 4.012-0.941 1.414 0.385 2.903 1.551 4.468 3.5v0l2.118 2.639 1.316-1.056c0.951-0.763 1.467-1.605 1.548-2.525 0.086-0.915-0.301-1.909-1.161-2.98v0c-0.649-0.809-1.372-1.338-2.169-1.589-0.801-0.255-1.649-0.322-2.544-0.199v0l0.167-2.18c1.016-0.219 2.097-0.137 3.243 0.247 1.15 0.389 2.208 1.185 3.173 2.388v0c1.303 1.623 1.918 3.202 1.846 4.736-0.072 1.535-0.815 2.869-2.227 4.003v0l-7.351 5.9 1.221 1.521zM35.686 228.116v0c0.417 0.52 0.859 0.947 1.326 1.28 0.467 0.334 0.937 0.565 1.411 0.694 0.469 0.133 0.921 0.168 1.354 0.105 0.433-0.063 0.823-0.233 1.17-0.512v0l2.198-1.764-2.201-2.742c-0.957-1.192-1.826-1.92-2.606-2.182-0.785-0.268-1.503-0.141-2.155 0.382v0l-0.544 0.437c-0.656 0.527-0.974 1.175-0.952 1.943 0.017 0.764 0.35 1.55 0.999 2.359z" fill="#000000" data-fill-palette-color="secondary"></path><path d="M48.454 244.868l-1.676-1.653c-0.662-0.653-0.978-1.329-0.949-2.029 0.024-0.705 0.317-1.343 0.88-1.914v0l15.304-15.511 1.891 1.866-15.609 15.821 1.79 1.766z" fill="#000000" data-fill-palette-color="secondary"></path><path d="M59.095 253.54l-2.584-2.075c-0.725-0.582-1.111-1.225-1.158-1.929-0.048-0.704 0.192-1.384 0.718-2.04v0l7.504-9.34-2.197-1.765 1.455-1.812 1.244 1c0.446 0.359 0.823 0.514 1.129 0.466 0.316-0.049 0.653-0.296 1.011-0.742v0l1.993-2.481 1.859 1.493-2.967 3.694 2.921 2.347-1.455 1.811-2.922-2.347-7.813 9.726 2.717 2.183z" fill="#000000" data-fill-palette-color="secondary"></path><path d="M65.458 257.811l12.89-20.892 2.261 1.395-5.363 8.693 0.112 0.069c0.865-0.606 1.776-0.954 2.733-1.044 0.948-0.088 1.967 0.205 3.056 0.876v0c1.507 0.93 2.401 2.15 2.68 3.66 0.279 1.51-0.127 3.15-1.22 4.921v0l-5.766 9.345-2.261-1.395 5.522-8.95c1.613-2.614 1.318-4.599-0.883-5.957v0c-0.453-0.279-0.925-0.495-1.416-0.648-0.495-0.147-0.98-0.213-1.456-0.198-0.48 0.021-0.926 0.141-1.339 0.361-0.411 0.229-0.761 0.579-1.051 1.049v0l-6.238 10.11z" fill="#000000" data-fill-palette-color="secondary"></path><path d="M108.173 276.531l-1.417-0.443c-0.951-0.298-1.553-0.765-1.805-1.402-0.252-0.637-0.315-1.351-0.187-2.144v0l-0.154-0.048c-0.678 0.903-1.508 1.479-2.489 1.73-0.98 0.244-2.038 0.188-3.176-0.169v0c-1.735-0.543-2.943-1.408-3.623-2.595-0.688-1.182-0.794-2.535-0.317-4.058v0c0.483-1.543 1.419-2.548 2.807-3.017 1.389-0.469 3.275-0.33 5.66 0.417v0l3.23 1.011 0.504-1.61c0.364-1.163 0.324-2.15-0.122-2.96-0.439-0.808-1.314-1.417-2.625-1.827v0c-0.99-0.31-1.885-0.347-2.686-0.11-0.807 0.234-1.548 0.652-2.223 1.251v0l-1.076-1.903c0.721-0.748 1.665-1.282 2.83-1.602 1.172-0.318 2.494-0.246 3.966 0.215v0c1.986 0.622 3.377 1.59 4.172 2.904 0.795 1.315 0.922 2.836 0.381 4.565v0l-2.816 8.995 1.861 0.583zM100.023 272.032v0c0.636 0.199 1.241 0.307 1.814 0.325 0.573 0.017 1.093-0.053 1.559-0.211 0.464-0.151 0.858-0.374 1.183-0.667 0.325-0.294 0.554-0.652 0.686-1.077v0l0.842-2.69-3.355-1.05c-1.459-0.457-2.586-0.577-3.381-0.36-0.801 0.215-1.327 0.721-1.576 1.518v0l-0.208 0.666c-0.251 0.803-0.154 1.518 0.292 2.144 0.44 0.625 1.154 1.092 2.144 1.402z" fill="#000000" data-fill-palette-color="secondary"></path><path d="M126.042 279.448l0.417-2.757-0.13-0.019c-1.349 1.942-3.159 2.741-5.43 2.398v0c-1.052-0.159-1.973-0.509-2.763-1.051-0.79-0.542-1.427-1.241-1.911-2.097-0.49-0.857-0.809-1.856-0.957-2.995-0.154-1.147-0.128-2.397 0.075-3.748v0c0.205-1.358 0.55-2.56 1.035-3.604 0.478-1.045 1.078-1.904 1.799-2.578 0.715-0.675 1.53-1.158 2.447-1.449 0.915-0.284 1.898-0.347 2.95-0.188v0c1.179 0.178 2.152 0.587 2.92 1.228 0.762 0.639 1.281 1.528 1.559 2.667v0l0.13 0.019 1.525-10.099 2.627 0.397-3.666 24.273zM121.974 276.821v0c0.593 0.09 1.167 0.098 1.723 0.026 0.563-0.072 1.062-0.224 1.5-0.459 0.438-0.24 0.803-0.556 1.093-0.948 0.297-0.391 0.487-0.86 0.57-1.406v0l0.95-6.293c0.069-0.459 0.018-0.91-0.153-1.351-0.165-0.44-0.422-0.833-0.772-1.179-0.351-0.339-0.783-0.633-1.298-0.881-0.509-0.24-1.059-0.405-1.651-0.494v0c-1.485-0.224-2.724 0.062-3.716 0.859-0.993 0.804-1.603 1.958-1.831 3.462v0l-0.436 2.887c-0.228 1.512 0.014 2.795 0.726 3.849 0.712 1.061 1.81 1.704 3.295 1.928z" fill="#000000" data-fill-palette-color="secondary"></path><path d="M144.67 279.942l-3.08 0.058-6.331-17.007 2.656-0.05 3.139 8.438 1.968 5.803 0.172-0.003 1.749-5.873 2.891-8.551 2.555-0.048z" fill="#000000" data-fill-palette-color="secondary"></path><path d="M155.839 258.017v0c-0.569 0.066-0.996-0.023-1.282-0.268-0.28-0.245-0.445-0.589-0.497-1.03v0l-0.049-0.421c-0.052-0.441 0.03-0.814 0.246-1.117 0.222-0.304 0.617-0.489 1.186-0.556v0c0.575-0.067 1.006 0.021 1.292 0.266 0.28 0.245 0.445 0.589 0.497 1.03v0l0.049 0.422c0.052 0.441-0.03 0.814-0.246 1.117-0.222 0.304-0.621 0.49-1.196 0.557zM156.98 279.161l-1.989-17.007 2.639-0.309 1.989 17.007z" fill="#000000" data-fill-palette-color="secondary"></path><path d="M174.498 275.999v0c-1.164 0.286-2.257 0.34-3.279 0.16-1.022-0.179-1.942-0.567-2.762-1.163-0.819-0.596-1.527-1.39-2.124-2.38-0.599-0.997-1.061-2.16-1.387-3.487v0c-0.328-1.334-0.457-2.579-0.387-3.734 0.07-1.155 0.33-2.186 0.78-3.093 0.45-0.908 1.085-1.681 1.906-2.32 0.823-0.632 1.816-1.091 2.98-1.377v0c1.655-0.406 3.067-0.372 4.238 0.103 1.177 0.474 2.154 1.229 2.929 2.266v0l-1.889 1.629c-0.511-0.783-1.169-1.329-1.973-1.637-0.802-0.302-1.717-0.327-2.743-0.075v0c-0.778 0.191-1.425 0.482-1.94 0.871-0.521 0.392-0.921 0.854-1.199 1.387-0.278 0.533-0.44 1.131-0.485 1.794-0.039 0.661 0.031 1.355 0.21 2.081v0l0.696 2.835c0.36 1.465 1.046 2.566 2.06 3.302 1.015 0.742 2.284 0.927 3.807 0.552v0c2.08-0.511 3.344-1.844 3.792-4v0l2.183 0.795c-0.241 1.335-0.807 2.487-1.7 3.455-0.886 0.967-2.124 1.645-3.713 2.036z" fill="#000000" data-fill-palette-color="secondary"></path><path d="M193.322 269.526v0c-1.084 0.446-2.138 0.654-3.162 0.624-1.031-0.027-2.008-0.277-2.93-0.75-0.923-0.472-1.76-1.144-2.512-2.014-0.76-0.874-1.401-1.943-1.92-3.208v0c-0.515-1.252-0.812-2.459-0.89-3.621-0.084-1.16 0.035-2.232 0.359-3.217 0.326-0.979 0.843-1.844 1.554-2.595 0.707-0.742 1.602-1.337 2.685-1.783v0c1.065-0.438 2.097-0.637 3.097-0.597 0.996 0.049 1.934 0.293 2.814 0.732 0.874 0.442 1.663 1.067 2.367 1.877 0.705 0.81 1.289 1.778 1.753 2.905v0l0.477 1.159-11.388 4.686 0.304 0.738c0.279 0.679 0.647 1.263 1.103 1.753 0.453 0.498 0.967 0.88 1.542 1.146 0.575 0.266 1.206 0.4 1.891 0.401 0.682 0.011 1.393-0.136 2.135-0.441v0c1.003-0.413 1.777-1.008 2.323-1.787 0.553-0.781 0.854-1.695 0.904-2.742v0l2.266 0.542c-0.065 1.294-0.502 2.497-1.312 3.61-0.812 1.106-1.965 1.967-3.46 2.582zM187.352 255.017v0c-0.673 0.277-1.237 0.648-1.694 1.113-0.451 0.462-0.79 0.991-1.018 1.588-0.222 0.594-0.326 1.226-0.312 1.897 0.017 0.678 0.167 1.362 0.452 2.054v0l0.088 0.215 8.745-3.599-0.139-0.336c-0.579-1.408-1.427-2.38-2.544-2.918-1.115-0.532-2.307-0.536-3.578-0.014z" fill="#000000" data-fill-palette-color="secondary"></path><path d="M228.567 249.964v0c1.043 1.431 1.249 2.89 0.616 4.377-0.628 1.483-2.057 3.037-4.288 4.664v0c-2.166 1.579-3.937 2.42-5.312 2.523-1.379 0.097-2.466-0.398-3.259-1.487v0c-0.548-0.751-0.778-1.479-0.692-2.184 0.092-0.709 0.404-1.407 0.935-2.094v0l-0.214-0.294c-1.111 0.202-1.992-0.143-2.643-1.036v0c-0.508-0.697-0.669-1.392-0.483-2.086 0.176-0.695 0.549-1.384 1.119-2.066v0l-0.083-0.114c-1.107 0.207-2.156 0.113-3.145-0.283-0.993-0.401-1.84-1.084-2.542-2.047v0c-0.508-0.697-0.853-1.433-1.035-2.209-0.178-0.77-0.191-1.532-0.04-2.283 0.148-0.758 0.454-1.481 0.918-2.17 0.466-0.698 1.091-1.333 1.875-1.905v0c0.985-0.718 1.992-1.177 3.021-1.377v0l-0.178-0.245c-0.389-0.533-0.585-1.065-0.589-1.596-0.004-0.531 0.28-1.004 0.852-1.421v0l2.065-1.506 1.363 1.869-2.629 1.917 0.649 0.889c0.814 0.065 1.578 0.295 2.292 0.692 0.714 0.396 1.345 0.97 1.893 1.721v0c0.508 0.697 0.851 1.43 1.029 2.2 0.178 0.77 0.193 1.534 0.045 2.292-0.152 0.752-0.465 1.477-0.94 2.174-0.472 0.702-1.099 1.339-1.883 1.91v0c-0.452 0.329-0.932 0.613-1.442 0.851v0c-0.371 0.462-0.657 0.95-0.858 1.464-0.201 0.513-0.145 0.985 0.168 1.415v0c0.302 0.414 0.7 0.548 1.195 0.404 0.5-0.148 1.061-0.448 1.681-0.901v0l2.955-2.154c1.714-1.25 3.198-1.832 4.453-1.747 1.254 0.086 2.298 0.7 3.131 1.843zM226.67 251.597v0c-0.405-0.555-0.938-0.846-1.598-0.872-0.657-0.021-1.522 0.359-2.594 1.141v0l-4.612 3.363c-0.569 1.015-0.542 1.949 0.081 2.803v0c0.444 0.609 1.049 0.965 1.814 1.065 0.771 0.097 1.7-0.252 2.789-1.045v0l1.983-1.446c1.197-0.873 1.991-1.739 2.381-2.599 0.385-0.856 0.303-1.659-0.244-2.41zM216.034 247.075v0c0.909-0.663 1.474-1.408 1.695-2.236 0.212-0.83-0.013-1.699-0.676-2.608v0l-0.547-0.751c-0.667-0.914-1.425-1.395-2.276-1.441-0.86-0.048-1.745 0.259-2.654 0.922v0c-0.914 0.667-1.477 1.415-1.689 2.244-0.221 0.828 0.001 1.699 0.668 2.614v0l0.548 0.751c0.663 0.909 1.424 1.387 2.284 1.435 0.851 0.047 1.733-0.263 2.647-0.93z" fill="#000000" data-fill-palette-color="secondary"></path><path d="M233.961 242.398l-1.932 1.823-11.751-12.455 1.932-1.823 2.163 2.292 0.118-0.111c-0.334-0.805-0.431-1.713-0.292-2.724 0.139-1.02 0.716-2.009 1.729-2.965v0l0.743-0.7 1.823 1.932-1.132 1.068c-1.043 0.984-1.672 1.952-1.885 2.904-0.218 0.947-0.045 1.719 0.519 2.316v0z" fill="#000000" data-fill-palette-color="secondary"></path><path d="M246.936 228.436v0c-0.722 0.897-1.543 1.585-2.464 2.063-0.925 0.483-1.905 0.74-2.941 0.772-1.036 0.031-2.097-0.149-3.184-0.539-1.092-0.394-2.17-1.02-3.236-1.878v0c-1.055-0.849-1.894-1.766-2.518-2.752-0.624-0.986-1.032-1.989-1.223-3.007-0.186-1.014-0.145-2.027 0.123-3.038 0.27-1.002 0.766-1.951 1.488-2.849v0c0.718-0.892 1.535-1.574 2.451-2.047 0.917-0.463 1.896-0.718 2.935-0.763 1.045-0.041 2.115 0.137 3.213 0.536 1.097 0.399 2.173 1.022 3.227 1.87v0c1.065 0.857 1.907 1.777 2.526 2.759 0.614 0.978 1.012 1.981 1.195 3.01 0.183 1.029 0.144 2.039-0.117 3.031-0.266 0.996-0.757 1.941-1.475 2.832zM245.102 226.961v0c0.899-1.118 1.29-2.307 1.173-3.569-0.122-1.256-0.891-2.454-2.308-3.594v0l-1.912-1.539c-1.411-1.136-2.744-1.629-3.997-1.478-1.263 0.151-2.344 0.785-3.243 1.903v0c-0.903 1.123-1.294 2.317-1.171 3.583 0.122 1.256 0.888 2.452 2.299 3.587v0l1.913 1.539c1.417 1.14 2.752 1.635 4.005 1.485 1.257-0.155 2.338-0.794 3.241-1.917z" fill="#000000" data-fill-palette-color="secondary"></path><path d="M260.828 206.447l-2.414-1.395-0.066 0.114c0.257 0.35 0.49 0.734 0.7 1.151 0.208 0.408 0.349 0.851 0.422 1.329 0.068 0.475 0.045 0.986-0.069 1.534-0.114 0.548-0.349 1.129-0.702 1.741v0c-0.886 1.534-2.081 2.465-3.586 2.795-1.504 0.329-3.158-0.027-4.959-1.068v0l-9.509-5.492 1.323-2.292 9.107 5.259c2.665 1.539 4.651 1.178 5.958-1.085v0c0.266-0.461 0.465-0.941 0.598-1.439 0.138-0.496 0.187-0.977 0.146-1.445-0.035-0.464-0.172-0.9-0.41-1.31-0.241-0.404-0.61-0.749-1.105-1.035v0l-10.262-5.926 1.329-2.301 14.828 8.564z" fill="#000000" data-fill-palette-color="secondary"></path><path d="M271.868 197.978l-22.286-8.238 0.921-2.493 2.615 0.967 0.046-0.123c-0.863-0.793-1.39-1.677-1.583-2.653-0.19-0.982-0.078-2.032 0.336-3.15v0c0.369-0.998 0.899-1.829 1.589-2.493 0.697-0.661 1.514-1.142 2.45-1.442 0.937-0.3 1.979-0.41 3.127-0.33 1.148 0.08 2.366 0.358 3.655 0.834v0c1.282 0.474 2.389 1.055 3.319 1.744 0.924 0.686 1.644 1.448 2.16 2.285 0.516 0.837 0.821 1.732 0.914 2.685 0.093 0.953-0.045 1.929-0.414 2.928v0c-0.806 2.179-2.38 3.378-4.723 3.596v0l-0.045 0.123 8.84 3.268zM266.228 188.354v0c0.521-1.409 0.488-2.681-0.097-3.816-0.579-1.133-1.586-1.965-3.019-2.495v0l-2.739-1.013c-1.428-0.528-2.733-0.551-3.916-0.069-1.177 0.484-2.026 1.43-2.547 2.839v0c-0.208 0.562-0.329 1.124-0.364 1.686-0.031 0.57 0.017 1.09 0.144 1.561 0.134 0.473 0.353 0.891 0.656 1.255 0.306 0.357 0.677 0.616 1.113 0.777v0l5.969 2.207c0.518 0.191 1.019 0.255 1.503 0.19 0.486-0.072 0.94-0.241 1.362-0.509 0.416-0.27 0.791-0.634 1.125-1.092 0.332-0.452 0.602-0.959 0.81-1.521z" fill="#000000" data-fill-palette-color="secondary"></path></g></svg></g></svg></g></svg></g></svg></g><defs></defs><mask id="941dac49-08bf-4b69-b028-57a985692765"><g id="SvgjsG1754"><svg viewBox="0 0 280 280" height="280" width="280"><g><svg viewBox="0 0 280 280" height="280" width="280"><g><svg viewBox="0 0 280 280" height="280" width="280"><g id="SvgjsG1753"><svg viewBox="0 0 280 280" height="280" width="280" id="SvgjsSvg1752"><g><svg viewBox="0 0 280 280" height="280" width="280"><g transform="matrix(1,0,0,1,74.00336708925556,78.12815664617709)"><svg viewBox="0 0 131.99326582148888 123.74368670764582" height="123.74368670764582" width="131.99326582148888"><g id="SvgjsG1751"><svg xmlns="http://www.w3.org/2000/svg" viewBox="4.440892098500626e-16 0 32 30" enable-background="new 0 0 32 32" x="0" y="0" height="123.74368670764582" width="131.99326582148888" class="icon-xg-0" data-fill-palette-color="accent" id="SvgjsSvg1750"><g fill="white"><path d="M24.999 10c-0.422 0-0.848-0.058-1.276-0.175-0.532-0.146-0.847-0.696-0.701-1.229 0.146-0.533 0.696-0.845 1.229-0.701 0.748 0.205 1.431 0.114 2.145-0.287 0.885-0.495 1.477-1.331 1.583-2.237 0.104-0.875-0.157-1.713-0.734-2.363-0.571-0.641-1.389-1.008-2.245-1.008-1.654 0-3 1.346-3 3l0.001-0.001 0.012 0.088c0.033 0.551-0.388 1.024-0.938 1.057-0.572 0.04-1.025-0.388-1.058-0.939l-0.017-0.205c0-2.757 2.243-5 5-5 1.427 0 2.79 0.612 3.738 1.679 0.947 1.067 1.395 2.498 1.226 3.926-0.182 1.54-1.15 2.941-2.592 3.748-0.768 0.431-1.562 0.647-2.373 0.647zM20 14c-2.757 0-5-2.243-5-5s2.243-5 5-5 5 2.243 5 5-2.243 5-5 5z m0-8c-1.654 0-3 1.346-3 3s1.346 3 3 3 3-1.346 3-3-1.346-3-3-3zM5.078 30h-3.082c-1.101 0-1.996-0.896-1.996-1.996v-11.008c0-1.101 0.895-1.996 1.996-1.996h3.929c0.554 0 1.088 0.233 1.464 0.64 0.377 0.406 0.568 0.957 0.526 1.509l-0.847 11.01c-0.08 1.031-0.954 1.841-1.99 1.841z m0-2v1-1z m0.842-11.004l-3.924 0.004 0.004 11.004 3.075-0.004 0.845-11.004zM18 29c-3.259 0-6.831-0.696-9.553-1.863l-2.543-1.09c-0.507-0.218-0.743-0.806-0.525-1.312 0.216-0.509 0.805-0.746 1.313-0.525l2.543 1.09c2.486 1.064 5.763 1.7 8.765 1.7 3.855 0 6.927-1.308 10.844-3.154 1.073-0.505 1.156-1.045 1.156-1.199 0-0.213-0.063-0.384-0.188-0.51-0.158-0.158-0.946-0.189-2.131 0.249-0.252 0.094-0.499 0.174-0.759 0.24-3.367 0.868-8.02 1.053-11.577 0.46-0.536-0.089-0.902-0.59-0.825-1.128 0.077-0.538 0.559-0.923 1.109-0.852 1.96 0.235 3.554 0.199 4.871-0.11 0.462-0.069 0.744-0.396 0.744-0.773 0-0.39-0.286-0.708-0.68-0.757-1.918-0.236-4.356-0.572-6.766-1.15-0.529-0.127-1.71-0.316-2.798-0.316-1.336 0-2.201 0.334-3.615 0.923-0.509 0.215-1.095-0.028-1.308-0.538s0.028-1.096 0.538-1.308c1.608-0.67 2.705-1.077 4.385-1.077 1.181 0 2.521 0.192 3.265 0.372 2.312 0.554 4.677 0.88 6.479 1.103 1.453 0.18 2.499 1.358 2.499 2.749 0 0.367-0.073 0.721-0.208 1.046 1.216-0.124 2.374-0.317 3.387-0.579 0.193-0.05 0.378-0.11 0.566-0.18 1.095-0.406 3.104-0.919 4.238 0.213 0.5 0.501 0.774 1.183 0.774 1.923 0 0.578-0.225 2.028-2.304 3.007-3.325 1.569-7.094 3.346-11.696 3.346z" fill="white"></path></g></svg></g></svg></g><g id="SvgjsG1749"><path d="M30.597 96.559l-9.938-3.345-3.738 11.106 9.938 3.345-0.89 2.642-21.944-7.386 0.889-2.642 9.68 3.258 3.738-11.106-9.68-3.258 0.887-2.633 21.944 7.386z" fill="black"></path><path d="M38.133 83.001v0c-0.579 1.019-1.281 1.832-2.106 2.44-0.829 0.614-1.752 1.019-2.77 1.215-1.018 0.197-2.091 0.184-3.219-0.039-1.137-0.22-2.301-0.668-3.489-1.342v0c-1.177-0.668-2.154-1.436-2.932-2.304-0.781-0.862-1.348-1.78-1.701-2.755-0.347-0.971-0.472-1.972-0.375-3.001 0.099-1.02 0.438-2.04 1.017-3.059v0c0.569-1.001 1.259-1.794 2.071-2.379 0.815-0.575 1.704-0.961 2.667-1.157 0.96-0.191 1.967-0.184 3.021 0.019 1.054 0.204 2.111 0.606 3.171 1.209v0l1.089 0.618-6.081 10.708 0.694 0.395c0.638 0.363 1.288 0.596 1.949 0.7 0.664 0.114 1.304 0.098 1.921-0.048 0.617-0.145 1.196-0.428 1.737-0.849 0.544-0.412 1.013-0.966 1.409-1.663v0c0.535-0.943 0.778-1.889 0.729-2.839-0.046-0.956-0.372-1.861-0.978-2.716v0l2.119-0.969c0.746 1.059 1.143 2.276 1.191 3.65 0.042 1.372-0.336 2.76-1.134 4.166zM24.491 75.254v0c-0.359 0.632-0.575 1.273-0.649 1.92-0.07 0.642-0.011 1.268 0.176 1.877 0.191 0.604 0.499 1.166 0.925 1.687 0.431 0.523 0.971 0.97 1.621 1.339v0l0.202 0.115 4.669-8.223-0.316-0.179c-1.324-0.752-2.591-0.995-3.802-0.731-1.206 0.268-2.148 0.999-2.826 2.195z" fill="black"></path><path d="M53.297 61.514l-0.93 1.158c-0.624 0.777-1.278 1.167-1.963 1.171-0.685 0.003-1.373-0.199-2.064-0.608v0l-0.101 0.126c0.594 0.96 0.828 1.943 0.703 2.949-0.13 1.001-0.568 1.966-1.314 2.896v0c-1.138 1.418-2.384 2.227-3.737 2.428-1.352 0.21-2.65-0.184-3.895-1.184v0c-1.26-1.012-1.856-2.25-1.786-3.713 0.07-1.464 0.887-3.17 2.451-5.119v0l2.118-2.639-1.316-1.056c-0.951-0.763-1.884-1.085-2.8-0.966-0.912 0.114-1.798 0.707-2.658 1.779v0c-0.649 0.809-1.01 1.629-1.082 2.461-0.076 0.837 0.042 1.679 0.356 2.526v0l-2.165 0.309c-0.434-0.944-0.587-2.017-0.46-3.219 0.131-1.207 0.68-2.412 1.645-3.615v0c1.303-1.623 2.711-2.565 4.225-2.827 1.514-0.261 2.977 0.175 4.39 1.309v0l7.35 5.9 1.221-1.52zM46.136 67.465v0c0.417-0.52 0.739-1.044 0.964-1.572 0.225-0.528 0.349-1.037 0.372-1.528 0.028-0.487-0.035-0.935-0.191-1.344-0.155-0.409-0.406-0.753-0.752-1.032v0l-2.198-1.764-2.201 2.741c-0.957 1.192-1.479 2.198-1.567 3.017-0.092 0.824 0.188 1.498 0.84 2.021v0l0.543 0.437c0.656 0.527 1.358 0.697 2.104 0.509 0.742-0.182 1.437-0.677 2.086-1.485z" fill="black"></path><path d="M60.476 54.509l-1.675 1.653c-0.662 0.653-1.342 0.96-2.042 0.922-0.705-0.033-1.338-0.335-1.901-0.905v0l-15.305-15.512 1.892-1.866 15.609 15.821 1.791-1.767z" fill="black"></path><path d="M69.816 46.997l-2.583 2.075c-0.725 0.582-1.436 0.821-2.134 0.716-0.698-0.105-1.31-0.485-1.837-1.142v0l-7.504-9.34-2.197 1.765-1.455-1.811 1.244-1c0.446-0.359 0.679-0.692 0.699-1.002 0.02-0.319-0.149-0.701-0.507-1.147v0l-1.993-2.481 1.858-1.493 2.968 3.693 2.921-2.347 1.456 1.811-2.922 2.348 7.814 9.726 2.717-2.183z" fill="black"></path><path d="M74.447 43.949l-12.89-20.892 2.261-1.395 5.363 8.692 0.112-0.069c-0.154-1.045-0.056-2.015 0.293-2.911 0.347-0.887 1.065-1.666 2.154-2.338v0c1.507-0.93 2.998-1.181 4.473-0.753 1.475 0.428 2.758 1.527 3.851 3.298v0l5.766 9.345-2.261 1.395-5.522-8.95c-1.613-2.614-3.519-3.242-5.72-1.884v0c-0.453 0.279-0.858 0.604-1.215 0.975-0.353 0.376-0.63 0.781-0.83 1.213-0.197 0.438-0.289 0.891-0.278 1.359 0.021 0.47 0.176 0.94 0.466 1.409v0l6.238 10.111z" fill="black"></path><path d="M113.287 26.997l-1.417 0.444c-0.951 0.298-1.712 0.257-2.282-0.122-0.57-0.379-1.029-0.931-1.376-1.655v0l-0.154 0.049c-0.042 1.128-0.395 2.075-1.058 2.84-0.666 0.759-1.567 1.316-2.706 1.672v0c-1.735 0.543-3.221 0.521-4.456-0.066-1.24-0.579-2.098-1.63-2.574-3.153v0c-0.483-1.543-0.287-2.902 0.586-4.079 0.874-1.177 2.503-2.138 4.887-2.885v0l3.23-1.011-0.504-1.61c-0.364-1.163-0.96-1.951-1.788-2.362-0.821-0.413-1.887-0.415-3.198-0.004v0c-0.99 0.31-1.746 0.79-2.269 1.441-0.53 0.653-0.9 1.418-1.113 2.296v0l-1.97-0.95c0.166-1.026 0.636-2.002 1.412-2.93 0.782-0.929 1.909-1.624 3.38-2.085v0c1.986-0.622 3.68-0.619 5.084 0.007 1.403 0.626 2.375 1.804 2.916 3.533v0l2.816 8.995 1.86-0.582zM104.026 27.949v0c0.636-0.199 1.195-0.455 1.676-0.768 0.481-0.313 0.867-0.667 1.16-1.062 0.295-0.389 0.492-0.796 0.591-1.223 0.099-0.426 0.083-0.852-0.05-1.275v0l-0.842-2.69-3.355 1.05c-1.459 0.457-2.453 1.001-2.982 1.632-0.536 0.633-0.679 1.349-0.429 2.146v0l0.208 0.665c0.251 0.803 0.739 1.335 1.463 1.596 0.717 0.262 1.571 0.239 2.56-0.071z" fill="black"></path><path d="M128.599 24.67l-0.417-2.757-0.13 0.019c-0.715 2.254-2.208 3.552-4.479 3.895v0c-1.052 0.159-2.036 0.096-2.95-0.188-0.915-0.284-1.73-0.764-2.445-1.439-0.722-0.674-1.321-1.534-1.799-2.578-0.486-1.05-0.83-2.252-1.035-3.604v0c-0.205-1.358-0.23-2.608-0.076-3.748 0.148-1.139 0.467-2.138 0.958-2.995 0.484-0.856 1.12-1.559 1.909-2.107 0.79-0.542 1.711-0.892 2.763-1.051v0c1.179-0.178 2.23-0.075 3.153 0.31 0.917 0.386 1.675 1.082 2.277 2.088v0l0.13-0.019-1.525-10.099 2.627-0.397 3.666 24.273zM123.936 23.361v0c0.593-0.09 1.144-0.251 1.654-0.484 0.516-0.235 0.949-0.528 1.297-0.881 0.348-0.359 0.602-0.769 0.765-1.229 0.169-0.461 0.212-0.965 0.129-1.511v0l-0.95-6.293c-0.069-0.459-0.251-0.875-0.546-1.246-0.288-0.372-0.65-0.672-1.086-0.899-0.435-0.22-0.935-0.373-1.5-0.458-0.557-0.079-1.132-0.074-1.724 0.016v0c-1.485 0.224-2.584 0.864-3.296 1.918-0.712 1.061-0.954 2.344-0.727 3.849v0l0.436 2.887c0.228 1.512 0.839 2.666 1.831 3.462 0.993 0.804 2.232 1.093 3.717 0.869z" fill="black"></path><path d="M144.349 24.365l-3.08-0.058-5.689-17.233 2.657 0.05 2.82 8.55 1.749 5.873 0.171 0.003 1.969-5.803 3.209-8.437 2.556 0.048z" fill="black"></path><path d="M158.76 4.196v0c-0.569-0.066-0.964-0.252-1.186-0.555-0.215-0.303-0.297-0.676-0.245-1.117v0l0.049-0.422c0.052-0.441 0.217-0.785 0.497-1.03 0.286-0.245 0.714-0.334 1.282-0.267v0c0.575 0.067 0.974 0.253 1.196 0.557 0.215 0.303 0.297 0.676 0.246 1.117v0l-0.049 0.421c-0.052 0.441-0.217 0.785-0.497 1.031-0.286 0.245-0.717 0.333-1.293 0.265zM154.991 25.033l1.989-17.007 2.639 0.309-1.989 17.007z" fill="black"></path><path d="M170.226 28.582v0c-1.164-0.286-2.158-0.745-2.98-1.377-0.823-0.632-1.459-1.402-1.908-2.31-0.45-0.908-0.71-1.939-0.78-3.094-0.068-1.161 0.06-2.405 0.387-3.733v0c0.328-1.334 0.79-2.497 1.387-3.487 0.597-0.991 1.305-1.784 2.124-2.38 0.819-0.596 1.74-0.987 2.764-1.173 1.022-0.179 2.115-0.125 3.279 0.16v0c1.655 0.406 2.891 1.092 3.708 2.056 0.824 0.965 1.339 2.087 1.545 3.365v0l-2.428 0.568c-0.09-0.931-0.42-1.719-0.99-2.365-0.571-0.64-1.37-1.086-2.397-1.338v0c-0.778-0.191-1.486-0.233-2.122-0.126-0.643 0.106-1.211 0.33-1.705 0.674-0.494 0.343-0.914 0.798-1.261 1.365-0.341 0.568-0.6 1.215-0.779 1.941v0l-0.696 2.835c-0.36 1.465-0.261 2.758 0.295 3.88 0.555 1.128 1.595 1.879 3.119 2.253v0c2.08 0.511 3.818-0.085 5.214-1.787v0l1.565 1.716c-0.832 1.072-1.868 1.83-3.107 2.274-1.233 0.446-2.644 0.474-4.234 0.083z" fill="black"></path><path d="M186.508 34.225v0c-1.084-0.446-1.979-1.04-2.686-1.782-0.713-0.745-1.231-1.61-1.554-2.595-0.323-0.985-0.445-2.051-0.366-3.199 0.075-1.156 0.373-2.366 0.893-3.63v0c0.515-1.252 1.154-2.318 1.917-3.199 0.757-0.883 1.596-1.561 2.519-2.033 0.92-0.466 1.897-0.716 2.931-0.749 1.025-0.03 2.079 0.178 3.162 0.624v0c1.065 0.438 1.938 1.023 2.62 1.755 0.673 0.736 1.168 1.569 1.484 2.501 0.31 0.929 0.43 1.928 0.361 2.999-0.069 1.071-0.336 2.17-0.8 3.298v0l-0.477 1.158-11.388-4.686-0.304 0.738c-0.279 0.679-0.429 1.353-0.449 2.022-0.029 0.673 0.067 1.306 0.289 1.899 0.222 0.594 0.575 1.133 1.06 1.617 0.477 0.487 1.086 0.884 1.827 1.188v0c1.003 0.413 1.972 0.535 2.908 0.367 0.942-0.166 1.799-0.603 2.572-1.313v0l1.228 1.981c-0.957 0.874-2.114 1.421-3.472 1.641-1.355 0.214-2.78 0.014-4.275-0.602zM192.478 19.717v0c-0.673-0.277-1.335-0.411-1.986-0.402-0.645 0.011-1.259 0.148-1.841 0.411-0.575 0.266-1.094 0.642-1.557 1.129-0.465 0.493-0.84 1.085-1.124 1.777v0l-0.089 0.215 8.745 3.598 0.138-0.336c0.579-1.408 0.661-2.696 0.246-3.864-0.417-1.162-1.262-2.005-2.532-2.528z" fill="black"></path><path d="M216.256 54.113v0c-1.043 1.431-2.37 2.073-3.978 1.925-1.604-0.144-3.521-1.029-5.753-2.656v0c-2.166-1.579-3.508-3.008-4.026-4.286-0.514-1.284-0.375-2.47 0.419-3.558v0c0.548-0.751 1.17-1.193 1.867-1.327 0.703-0.129 1.463-0.046 2.281 0.25v0l0.214-0.293c-0.532-0.996-0.473-1.941 0.178-2.834v0c0.508-0.697 1.121-1.063 1.838-1.097 0.716-0.045 1.486 0.1 2.309 0.433v0l0.083-0.114c-0.536-0.991-0.767-2.018-0.692-3.08 0.079-1.068 0.469-2.084 1.171-3.047v0c0.508-0.697 1.103-1.25 1.786-1.661 0.679-0.405 1.4-0.651 2.163-0.736 0.767-0.091 1.549-0.021 2.346 0.21 0.807 0.23 1.603 0.631 2.387 1.203v0c0.985 0.718 1.73 1.537 2.235 2.455v0l0.179-0.245c0.389-0.533 0.835-0.883 1.34-1.049 0.504-0.166 1.042-0.04 1.613 0.376v0l2.065 1.506-1.363 1.87-2.628-1.917-0.649 0.89c0.187 0.795 0.201 1.593 0.043 2.394-0.159 0.801-0.512 1.577-1.06 2.328v0c-0.508 0.697-1.101 1.247-1.78 1.652-0.679 0.405-1.402 0.653-2.168 0.745-0.763 0.086-1.548 0.009-2.357-0.231-0.813-0.234-1.611-0.637-2.395-1.208v0c-0.452-0.329-0.869-0.7-1.252-1.113v0c-0.554-0.212-1.106-0.335-1.655-0.369-0.55-0.034-0.982 0.163-1.296 0.593v0c-0.302 0.414-0.308 0.834-0.019 1.261 0.294 0.431 0.751 0.873 1.372 1.325v0l2.955 2.155c1.714 1.25 2.722 2.485 3.024 3.705 0.302 1.22 0.037 2.402-0.797 3.545zM214.121 52.806v0c0.405-0.555 0.519-1.151 0.342-1.789-0.181-0.632-0.807-1.339-1.88-2.12v0l-4.612-3.363c-1.14-0.231-2.022 0.081-2.644 0.935v0c-0.444 0.609-0.597 1.294-0.46 2.053 0.144 0.763 0.76 1.542 1.849 2.335v0l1.983 1.447c1.197 0.873 2.265 1.364 3.203 1.472 0.932 0.105 1.672-0.219 2.219-0.97zM215.174 41.297v0c0.909 0.663 1.791 0.973 2.647 0.93 0.855-0.052 1.613-0.532 2.276-1.441v0l0.548-0.751c0.667-0.914 0.892-1.783 0.676-2.608-0.217-0.834-0.78-1.582-1.689-2.244v0c-0.914-0.667-1.799-0.974-2.654-0.922-0.856 0.043-1.618 0.521-2.284 1.435v0l-0.547 0.751c-0.663 0.909-0.885 1.78-0.668 2.614 0.216 0.824 0.781 1.57 1.695 2.236z" fill="black"></path><path d="M222.214 57.245l-1.933-1.823 11.751-12.455 1.933 1.824-2.163 2.292 0.117 0.111c0.785-0.38 1.685-0.53 2.703-0.45 1.027 0.08 2.047 0.598 3.061 1.555v0l0.742 0.7-1.824 1.932-1.131-1.067c-1.043-0.984-2.046-1.556-3.009-1.714-0.958-0.163-1.718 0.055-2.282 0.653v0z" fill="black"></path><path d="M232.985 69.98v0c-0.722-0.897-1.218-1.847-1.488-2.848-0.274-1.007-0.315-2.02-0.124-3.038 0.192-1.019 0.594-2.017 1.208-2.995 0.619-0.982 1.461-1.902 2.526-2.758v0c1.055-0.849 2.131-1.472 3.228-1.871 1.097-0.399 2.163-0.582 3.199-0.552 1.031 0.035 2.011 0.292 2.942 0.771 0.921 0.478 1.742 1.166 2.464 2.063v0c0.718 0.892 1.209 1.836 1.475 2.833 0.256 0.995 0.295 2.005 0.117 3.03-0.183 1.029-0.587 2.037-1.211 3.023-0.624 0.986-1.464 1.904-2.518 2.753v0c-1.065 0.857-2.144 1.483-3.235 1.877-1.086 0.39-2.152 0.565-3.197 0.523-1.045-0.041-2.023-0.296-2.935-0.763-0.916-0.473-1.733-1.155-2.451-2.048zM234.819 68.505v0c0.899 1.118 1.978 1.754 3.235 1.909 1.253 0.15 2.588-0.345 4.004-1.484v0l1.913-1.539c1.411-1.136 2.178-2.332 2.3-3.588 0.123-1.266-0.266-2.457-1.165-3.575v0c-0.903-1.123-1.987-1.76-3.249-1.911-1.253-0.15-2.585 0.343-3.997 1.478v0l-1.913 1.539c-1.417 1.14-2.186 2.338-2.307 3.594-0.117 1.261 0.276 2.454 1.179 3.577z" fill="black"></path><path d="M246.004 89.306l2.415-1.394-0.066-0.114c-0.432 0.047-0.881 0.058-1.347 0.031-0.457-0.024-0.911-0.123-1.362-0.298-0.445-0.178-0.877-0.454-1.295-0.827-0.418-0.373-0.803-0.866-1.157-1.478v0c-0.886-1.534-1.095-3.034-0.628-4.502 0.467-1.467 1.601-2.721 3.403-3.762v0l9.51-5.492 1.323 2.292-9.106 5.259c-2.665 1.539-3.344 3.44-2.038 5.703v0c0.266 0.461 0.582 0.873 0.948 1.238 0.36 0.368 0.753 0.65 1.178 0.848 0.419 0.201 0.866 0.301 1.34 0.299 0.47-0.007 0.953-0.154 1.449-0.44v0l10.261-5.926 1.329 2.3-14.828 8.564z" fill="black"></path><path d="M243.361 99.752l22.286-8.239 0.921 2.492-2.615 0.967 0.046 0.123c1.171 0.041 2.147 0.369 2.928 0.986 0.783 0.622 1.381 1.493 1.794 2.611v0c0.369 0.998 0.507 1.974 0.414 2.927-0.099 0.956-0.407 1.852-0.923 2.689-0.516 0.837-1.236 1.599-2.16 2.285-0.924 0.686-2.03 1.267-3.319 1.744v0c-1.282 0.474-2.501 0.752-3.655 0.834-1.148 0.08-2.19-0.03-3.127-0.33-0.937-0.3-1.75-0.782-2.441-1.446-0.691-0.664-1.22-1.495-1.589-2.493v0c-0.806-2.179-0.39-4.114 1.247-5.803v0l-0.045-0.123-8.841 3.268zM253.905 103.393v0c0.521 1.409 1.373 2.354 2.556 2.836 1.177 0.484 2.482 0.461 3.917-0.069v0l2.738-1.013c1.428-0.528 2.434-1.359 3.02-2.495 0.579-1.133 0.608-2.404 0.087-3.813v0c-0.208-0.562-0.481-1.068-0.819-1.517-0.347-0.453-0.722-0.817-1.126-1.092-0.409-0.272-0.848-0.448-1.314-0.526-0.465-0.072-0.915-0.028-1.351 0.133v0l-5.97 2.207c-0.518 0.191-0.939 0.469-1.264 0.834-0.323 0.371-0.557 0.795-0.704 1.272-0.14 0.475-0.188 0.996-0.144 1.561 0.042 0.559 0.166 1.12 0.374 1.682z" fill="black"></path><path d="M3.334 143.596c0-5.178 4.198-9.377 9.376-9.377 5.178 0 9.377 4.198 9.377 9.377 0 5.178-4.198 9.377-9.377 9.376-5.178 0-9.377-4.198-9.376-9.376z" fill="black"></path><path d="M257.913 143.596c0-5.178 4.198-9.377 9.377-9.377 5.178 0 9.377 4.198 9.376 9.377 0 5.178-4.198 9.377-9.376 9.376-5.178 0-9.377-4.198-9.377-9.376z" fill="black"></path></g><g id="SvgjsG1748"><path d="M14.373 196.094l9.938-3.345-3.738-11.107-9.938 3.345-0.89-2.642 21.945-7.386 0.889 2.642-9.68 3.258 3.739 11.107 9.679-3.258 0.886 2.633-21.944 7.386z" fill="black"></path><path d="M22.562 213.033v0c-0.579-1.019-0.918-2.039-1.017-3.059-0.103-1.026 0.023-2.026 0.375-3.001 0.353-0.975 0.913-1.89 1.683-2.744 0.772-0.864 1.752-1.634 2.941-2.309v0c1.177-0.668 2.337-1.114 3.481-1.338 1.14-0.229 2.219-0.245 3.236-0.049 1.012 0.2 1.935 0.605 2.77 1.215 0.825 0.608 1.527 1.421 2.106 2.44v0c0.569 1.001 0.896 2.001 0.982 2.998 0.077 0.994-0.047 1.955-0.373 2.883-0.328 0.922-0.85 1.784-1.564 2.585-0.715 0.801-1.602 1.502-2.662 2.104v0l-1.089 0.619-6.081-10.709-0.694 0.394c-0.638 0.363-1.172 0.801-1.6 1.316-0.437 0.512-0.752 1.07-0.943 1.674-0.191 0.604-0.245 1.247-0.161 1.926 0.075 0.678 0.31 1.365 0.706 2.062v0c0.535 0.943 1.224 1.636 2.065 2.081 0.844 0.45 1.789 0.634 2.834 0.551v0l-0.253 2.316c-1.292 0.098-2.54-0.184-3.746-0.847-1.199-0.666-2.198-1.702-2.996-3.108zM36.204 205.286v0c-0.359-0.632-0.798-1.146-1.316-1.541-0.515-0.389-1.083-0.659-1.703-0.81-0.617-0.145-1.258-0.169-1.922-0.071-0.67 0.102-1.33 0.337-1.981 0.707v0l-0.202 0.115 4.67 8.222 0.316-0.18c1.324-0.752 2.182-1.715 2.575-2.891 0.387-1.173 0.242-2.356-0.437-3.551z" fill="black"></path><path d="M39.947 236.393l-0.93-1.158c-0.624-0.777-0.863-1.501-0.718-2.17 0.145-0.669 0.492-1.297 1.04-1.883v0l-0.101-0.126c-1.066 0.372-2.076 0.388-3.031 0.049-0.949-0.343-1.797-0.98-2.543-1.91v0c-1.138-1.418-1.659-2.809-1.563-4.173 0.087-1.365 0.753-2.548 1.998-3.547v0c1.26-1.012 2.598-1.325 4.012-0.941 1.414 0.385 2.903 1.551 4.468 3.5v0l2.118 2.639 1.316-1.056c0.951-0.763 1.467-1.605 1.548-2.525 0.086-0.915-0.301-1.909-1.161-2.98v0c-0.649-0.809-1.372-1.338-2.169-1.589-0.801-0.255-1.649-0.322-2.544-0.199v0l0.167-2.18c1.016-0.219 2.097-0.137 3.243 0.247 1.15 0.389 2.208 1.185 3.173 2.388v0c1.303 1.623 1.918 3.202 1.846 4.736-0.072 1.535-0.815 2.869-2.227 4.003v0l-7.351 5.9 1.221 1.521zM35.686 228.116v0c0.417 0.52 0.859 0.947 1.326 1.28 0.467 0.334 0.937 0.565 1.411 0.694 0.469 0.133 0.921 0.168 1.354 0.105 0.433-0.063 0.823-0.233 1.17-0.512v0l2.198-1.764-2.201-2.742c-0.957-1.192-1.826-1.92-2.606-2.182-0.785-0.268-1.503-0.141-2.155 0.382v0l-0.544 0.437c-0.656 0.527-0.974 1.175-0.952 1.943 0.017 0.764 0.35 1.55 0.999 2.359z" fill="black"></path><path d="M48.454 244.868l-1.676-1.653c-0.662-0.653-0.978-1.329-0.949-2.029 0.024-0.705 0.317-1.343 0.88-1.914v0l15.304-15.511 1.891 1.866-15.609 15.821 1.79 1.766z" fill="black"></path><path d="M59.095 253.54l-2.584-2.075c-0.725-0.582-1.111-1.225-1.158-1.929-0.048-0.704 0.192-1.384 0.718-2.04v0l7.504-9.34-2.197-1.765 1.455-1.812 1.244 1c0.446 0.359 0.823 0.514 1.129 0.466 0.316-0.049 0.653-0.296 1.011-0.742v0l1.993-2.481 1.859 1.493-2.967 3.694 2.921 2.347-1.455 1.811-2.922-2.347-7.813 9.726 2.717 2.183z" fill="black"></path><path d="M65.458 257.811l12.89-20.892 2.261 1.395-5.363 8.693 0.112 0.069c0.865-0.606 1.776-0.954 2.733-1.044 0.948-0.088 1.967 0.205 3.056 0.876v0c1.507 0.93 2.401 2.15 2.68 3.66 0.279 1.51-0.127 3.15-1.22 4.921v0l-5.766 9.345-2.261-1.395 5.522-8.95c1.613-2.614 1.318-4.599-0.883-5.957v0c-0.453-0.279-0.925-0.495-1.416-0.648-0.495-0.147-0.98-0.213-1.456-0.198-0.48 0.021-0.926 0.141-1.339 0.361-0.411 0.229-0.761 0.579-1.051 1.049v0l-6.238 10.11z" fill="black"></path><path d="M108.173 276.531l-1.417-0.443c-0.951-0.298-1.553-0.765-1.805-1.402-0.252-0.637-0.315-1.351-0.187-2.144v0l-0.154-0.048c-0.678 0.903-1.508 1.479-2.489 1.73-0.98 0.244-2.038 0.188-3.176-0.169v0c-1.735-0.543-2.943-1.408-3.623-2.595-0.688-1.182-0.794-2.535-0.317-4.058v0c0.483-1.543 1.419-2.548 2.807-3.017 1.389-0.469 3.275-0.33 5.66 0.417v0l3.23 1.011 0.504-1.61c0.364-1.163 0.324-2.15-0.122-2.96-0.439-0.808-1.314-1.417-2.625-1.827v0c-0.99-0.31-1.885-0.347-2.686-0.11-0.807 0.234-1.548 0.652-2.223 1.251v0l-1.076-1.903c0.721-0.748 1.665-1.282 2.83-1.602 1.172-0.318 2.494-0.246 3.966 0.215v0c1.986 0.622 3.377 1.59 4.172 2.904 0.795 1.315 0.922 2.836 0.381 4.565v0l-2.816 8.995 1.861 0.583zM100.023 272.032v0c0.636 0.199 1.241 0.307 1.814 0.325 0.573 0.017 1.093-0.053 1.559-0.211 0.464-0.151 0.858-0.374 1.183-0.667 0.325-0.294 0.554-0.652 0.686-1.077v0l0.842-2.69-3.355-1.05c-1.459-0.457-2.586-0.577-3.381-0.36-0.801 0.215-1.327 0.721-1.576 1.518v0l-0.208 0.666c-0.251 0.803-0.154 1.518 0.292 2.144 0.44 0.625 1.154 1.092 2.144 1.402z" fill="black"></path><path d="M126.042 279.448l0.417-2.757-0.13-0.019c-1.349 1.942-3.159 2.741-5.43 2.398v0c-1.052-0.159-1.973-0.509-2.763-1.051-0.79-0.542-1.427-1.241-1.911-2.097-0.49-0.857-0.809-1.856-0.957-2.995-0.154-1.147-0.128-2.397 0.075-3.748v0c0.205-1.358 0.55-2.56 1.035-3.604 0.478-1.045 1.078-1.904 1.799-2.578 0.715-0.675 1.53-1.158 2.447-1.449 0.915-0.284 1.898-0.347 2.95-0.188v0c1.179 0.178 2.152 0.587 2.92 1.228 0.762 0.639 1.281 1.528 1.559 2.667v0l0.13 0.019 1.525-10.099 2.627 0.397-3.666 24.273zM121.974 276.821v0c0.593 0.09 1.167 0.098 1.723 0.026 0.563-0.072 1.062-0.224 1.5-0.459 0.438-0.24 0.803-0.556 1.093-0.948 0.297-0.391 0.487-0.86 0.57-1.406v0l0.95-6.293c0.069-0.459 0.018-0.91-0.153-1.351-0.165-0.44-0.422-0.833-0.772-1.179-0.351-0.339-0.783-0.633-1.298-0.881-0.509-0.24-1.059-0.405-1.651-0.494v0c-1.485-0.224-2.724 0.062-3.716 0.859-0.993 0.804-1.603 1.958-1.831 3.462v0l-0.436 2.887c-0.228 1.512 0.014 2.795 0.726 3.849 0.712 1.061 1.81 1.704 3.295 1.928z" fill="black"></path><path d="M144.67 279.942l-3.08 0.058-6.331-17.007 2.656-0.05 3.139 8.438 1.968 5.803 0.172-0.003 1.749-5.873 2.891-8.551 2.555-0.048z" fill="black"></path><path d="M155.839 258.017v0c-0.569 0.066-0.996-0.023-1.282-0.268-0.28-0.245-0.445-0.589-0.497-1.03v0l-0.049-0.421c-0.052-0.441 0.03-0.814 0.246-1.117 0.222-0.304 0.617-0.489 1.186-0.556v0c0.575-0.067 1.006 0.021 1.292 0.266 0.28 0.245 0.445 0.589 0.497 1.03v0l0.049 0.422c0.052 0.441-0.03 0.814-0.246 1.117-0.222 0.304-0.621 0.49-1.196 0.557zM156.98 279.161l-1.989-17.007 2.639-0.309 1.989 17.007z" fill="black"></path><path d="M174.498 275.999v0c-1.164 0.286-2.257 0.34-3.279 0.16-1.022-0.179-1.942-0.567-2.762-1.163-0.819-0.596-1.527-1.39-2.124-2.38-0.599-0.997-1.061-2.16-1.387-3.487v0c-0.328-1.334-0.457-2.579-0.387-3.734 0.07-1.155 0.33-2.186 0.78-3.093 0.45-0.908 1.085-1.681 1.906-2.32 0.823-0.632 1.816-1.091 2.98-1.377v0c1.655-0.406 3.067-0.372 4.238 0.103 1.177 0.474 2.154 1.229 2.929 2.266v0l-1.889 1.629c-0.511-0.783-1.169-1.329-1.973-1.637-0.802-0.302-1.717-0.327-2.743-0.075v0c-0.778 0.191-1.425 0.482-1.94 0.871-0.521 0.392-0.921 0.854-1.199 1.387-0.278 0.533-0.44 1.131-0.485 1.794-0.039 0.661 0.031 1.355 0.21 2.081v0l0.696 2.835c0.36 1.465 1.046 2.566 2.06 3.302 1.015 0.742 2.284 0.927 3.807 0.552v0c2.08-0.511 3.344-1.844 3.792-4v0l2.183 0.795c-0.241 1.335-0.807 2.487-1.7 3.455-0.886 0.967-2.124 1.645-3.713 2.036z" fill="black"></path><path d="M193.322 269.526v0c-1.084 0.446-2.138 0.654-3.162 0.624-1.031-0.027-2.008-0.277-2.93-0.75-0.923-0.472-1.76-1.144-2.512-2.014-0.76-0.874-1.401-1.943-1.92-3.208v0c-0.515-1.252-0.812-2.459-0.89-3.621-0.084-1.16 0.035-2.232 0.359-3.217 0.326-0.979 0.843-1.844 1.554-2.595 0.707-0.742 1.602-1.337 2.685-1.783v0c1.065-0.438 2.097-0.637 3.097-0.597 0.996 0.049 1.934 0.293 2.814 0.732 0.874 0.442 1.663 1.067 2.367 1.877 0.705 0.81 1.289 1.778 1.753 2.905v0l0.477 1.159-11.388 4.686 0.304 0.738c0.279 0.679 0.647 1.263 1.103 1.753 0.453 0.498 0.967 0.88 1.542 1.146 0.575 0.266 1.206 0.4 1.891 0.401 0.682 0.011 1.393-0.136 2.135-0.441v0c1.003-0.413 1.777-1.008 2.323-1.787 0.553-0.781 0.854-1.695 0.904-2.742v0l2.266 0.542c-0.065 1.294-0.502 2.497-1.312 3.61-0.812 1.106-1.965 1.967-3.46 2.582zM187.352 255.017v0c-0.673 0.277-1.237 0.648-1.694 1.113-0.451 0.462-0.79 0.991-1.018 1.588-0.222 0.594-0.326 1.226-0.312 1.897 0.017 0.678 0.167 1.362 0.452 2.054v0l0.088 0.215 8.745-3.599-0.139-0.336c-0.579-1.408-1.427-2.38-2.544-2.918-1.115-0.532-2.307-0.536-3.578-0.014z" fill="black"></path><path d="M228.567 249.964v0c1.043 1.431 1.249 2.89 0.616 4.377-0.628 1.483-2.057 3.037-4.288 4.664v0c-2.166 1.579-3.937 2.42-5.312 2.523-1.379 0.097-2.466-0.398-3.259-1.487v0c-0.548-0.751-0.778-1.479-0.692-2.184 0.092-0.709 0.404-1.407 0.935-2.094v0l-0.214-0.294c-1.111 0.202-1.992-0.143-2.643-1.036v0c-0.508-0.697-0.669-1.392-0.483-2.086 0.176-0.695 0.549-1.384 1.119-2.066v0l-0.083-0.114c-1.107 0.207-2.156 0.113-3.145-0.283-0.993-0.401-1.84-1.084-2.542-2.047v0c-0.508-0.697-0.853-1.433-1.035-2.209-0.178-0.77-0.191-1.532-0.04-2.283 0.148-0.758 0.454-1.481 0.918-2.17 0.466-0.698 1.091-1.333 1.875-1.905v0c0.985-0.718 1.992-1.177 3.021-1.377v0l-0.178-0.245c-0.389-0.533-0.585-1.065-0.589-1.596-0.004-0.531 0.28-1.004 0.852-1.421v0l2.065-1.506 1.363 1.869-2.629 1.917 0.649 0.889c0.814 0.065 1.578 0.295 2.292 0.692 0.714 0.396 1.345 0.97 1.893 1.721v0c0.508 0.697 0.851 1.43 1.029 2.2 0.178 0.77 0.193 1.534 0.045 2.292-0.152 0.752-0.465 1.477-0.94 2.174-0.472 0.702-1.099 1.339-1.883 1.91v0c-0.452 0.329-0.932 0.613-1.442 0.851v0c-0.371 0.462-0.657 0.95-0.858 1.464-0.201 0.513-0.145 0.985 0.168 1.415v0c0.302 0.414 0.7 0.548 1.195 0.404 0.5-0.148 1.061-0.448 1.681-0.901v0l2.955-2.154c1.714-1.25 3.198-1.832 4.453-1.747 1.254 0.086 2.298 0.7 3.131 1.843zM226.67 251.597v0c-0.405-0.555-0.938-0.846-1.598-0.872-0.657-0.021-1.522 0.359-2.594 1.141v0l-4.612 3.363c-0.569 1.015-0.542 1.949 0.081 2.803v0c0.444 0.609 1.049 0.965 1.814 1.065 0.771 0.097 1.7-0.252 2.789-1.045v0l1.983-1.446c1.197-0.873 1.991-1.739 2.381-2.599 0.385-0.856 0.303-1.659-0.244-2.41zM216.034 247.075v0c0.909-0.663 1.474-1.408 1.695-2.236 0.212-0.83-0.013-1.699-0.676-2.608v0l-0.547-0.751c-0.667-0.914-1.425-1.395-2.276-1.441-0.86-0.048-1.745 0.259-2.654 0.922v0c-0.914 0.667-1.477 1.415-1.689 2.244-0.221 0.828 0.001 1.699 0.668 2.614v0l0.548 0.751c0.663 0.909 1.424 1.387 2.284 1.435 0.851 0.047 1.733-0.263 2.647-0.93z" fill="black"></path><path d="M233.961 242.398l-1.932 1.823-11.751-12.455 1.932-1.823 2.163 2.292 0.118-0.111c-0.334-0.805-0.431-1.713-0.292-2.724 0.139-1.02 0.716-2.009 1.729-2.965v0l0.743-0.7 1.823 1.932-1.132 1.068c-1.043 0.984-1.672 1.952-1.885 2.904-0.218 0.947-0.045 1.719 0.519 2.316v0z" fill="black"></path><path d="M246.936 228.436v0c-0.722 0.897-1.543 1.585-2.464 2.063-0.925 0.483-1.905 0.74-2.941 0.772-1.036 0.031-2.097-0.149-3.184-0.539-1.092-0.394-2.17-1.02-3.236-1.878v0c-1.055-0.849-1.894-1.766-2.518-2.752-0.624-0.986-1.032-1.989-1.223-3.007-0.186-1.014-0.145-2.027 0.123-3.038 0.27-1.002 0.766-1.951 1.488-2.849v0c0.718-0.892 1.535-1.574 2.451-2.047 0.917-0.463 1.896-0.718 2.935-0.763 1.045-0.041 2.115 0.137 3.213 0.536 1.097 0.399 2.173 1.022 3.227 1.87v0c1.065 0.857 1.907 1.777 2.526 2.759 0.614 0.978 1.012 1.981 1.195 3.01 0.183 1.029 0.144 2.039-0.117 3.031-0.266 0.996-0.757 1.941-1.475 2.832zM245.102 226.961v0c0.899-1.118 1.29-2.307 1.173-3.569-0.122-1.256-0.891-2.454-2.308-3.594v0l-1.912-1.539c-1.411-1.136-2.744-1.629-3.997-1.478-1.263 0.151-2.344 0.785-3.243 1.903v0c-0.903 1.123-1.294 2.317-1.171 3.583 0.122 1.256 0.888 2.452 2.299 3.587v0l1.913 1.539c1.417 1.14 2.752 1.635 4.005 1.485 1.257-0.155 2.338-0.794 3.241-1.917z" fill="black"></path><path d="M260.828 206.447l-2.414-1.395-0.066 0.114c0.257 0.35 0.49 0.734 0.7 1.151 0.208 0.408 0.349 0.851 0.422 1.329 0.068 0.475 0.045 0.986-0.069 1.534-0.114 0.548-0.349 1.129-0.702 1.741v0c-0.886 1.534-2.081 2.465-3.586 2.795-1.504 0.329-3.158-0.027-4.959-1.068v0l-9.509-5.492 1.323-2.292 9.107 5.259c2.665 1.539 4.651 1.178 5.958-1.085v0c0.266-0.461 0.465-0.941 0.598-1.439 0.138-0.496 0.187-0.977 0.146-1.445-0.035-0.464-0.172-0.9-0.41-1.31-0.241-0.404-0.61-0.749-1.105-1.035v0l-10.262-5.926 1.329-2.301 14.828 8.564z" fill="black"></path><path d="M271.868 197.978l-22.286-8.238 0.921-2.493 2.615 0.967 0.046-0.123c-0.863-0.793-1.39-1.677-1.583-2.653-0.19-0.982-0.078-2.032 0.336-3.15v0c0.369-0.998 0.899-1.829 1.589-2.493 0.697-0.661 1.514-1.142 2.45-1.442 0.937-0.3 1.979-0.41 3.127-0.33 1.148 0.08 2.366 0.358 3.655 0.834v0c1.282 0.474 2.389 1.055 3.319 1.744 0.924 0.686 1.644 1.448 2.16 2.285 0.516 0.837 0.821 1.732 0.914 2.685 0.093 0.953-0.045 1.929-0.414 2.928v0c-0.806 2.179-2.38 3.378-4.723 3.596v0l-0.045 0.123 8.84 3.268zM266.228 188.354v0c0.521-1.409 0.488-2.681-0.097-3.816-0.579-1.133-1.586-1.965-3.019-2.495v0l-2.739-1.013c-1.428-0.528-2.733-0.551-3.916-0.069-1.177 0.484-2.026 1.43-2.547 2.839v0c-0.208 0.562-0.329 1.124-0.364 1.686-0.031 0.57 0.017 1.09 0.144 1.561 0.134 0.473 0.353 0.891 0.656 1.255 0.306 0.357 0.677 0.616 1.113 0.777v0l5.969 2.207c0.518 0.191 1.019 0.255 1.503 0.19 0.486-0.072 0.94-0.241 1.362-0.509 0.416-0.27 0.791-0.634 1.125-1.092 0.332-0.452 0.602-0.959 0.81-1.521z" fill="black"></path></g></svg></g></svg></g></svg></g></svg></g><defs><mask></mask></defs></svg><rect width="280" height="280" fill="black" stroke="none" visibility="hidden"></rect></g></mask><linearGradient x1="0.054" x2="0.941" y1="0.5" y2="0.5" id="d372147a-6e72-49ed-868f-027406824681"><stop stop-color="#0f3054" offset="0"></stop><stop stop-color="#3b8dcb" offset="0.498"></stop><stop stop-color="#0f3054" offset="1"></stop></linearGradient><rect width="280" height="280" fill="#000000" mask="url(#941dac49-08bf-4b69-b028-57a985692765)" data-fill-palette-color="accent"></rect></svg><rect width="280" height="280" fill="none" stroke="none" visibility="hidden"></rect></g></svg></g></svg>